<svg width="40" height="40" viewBox="0 0 40 40" fill="none" xmlns="http://www.w3.org/2000/svg">
<circle cx="20" cy="20" r="19" stroke="#191919" stroke-width="2"/>
<path d="M20.7635 27.0849C19.855 27.0849 19.0222 27.0849 18.1516 27.0849C18.1516 25.1344 18.1516 23.2028 18.1516 21.2333C17.4323 21.2333 16.732 21.2333 16.0317 21.2333C16.0317 20.4001 16.0317 19.6048 16.0317 18.7905C16.732 18.7905 17.4134 18.7905 18.1516 18.7905C18.1516 18.62 18.1516 18.4685 18.1516 18.336C18.1705 17.6353 18.1137 16.9347 18.2084 16.2529C18.4355 14.6622 19.4386 13.7532 21.0474 13.6775C21.7099 13.6396 22.3723 13.7532 23.0158 13.8101C23.0915 13.8101 23.2051 13.9426 23.2051 14.0184C23.224 14.6243 23.2051 15.2493 23.2051 15.9121C22.8455 15.9121 22.5048 15.9121 22.1641 15.9121C21.2178 15.9121 20.7635 16.3665 20.7635 17.3323C20.7635 17.8058 20.7635 18.2792 20.7635 18.8094C21.5584 18.8094 22.3155 18.8094 23.0915 18.8094C22.959 19.6426 22.8455 20.4191 22.713 21.2523C22.0695 21.2523 21.426 21.2523 20.7635 21.2523C20.7635 23.1839 20.7635 25.1154 20.7635 27.0849Z" fill="#191919"/>
</svg>
