<svg width="40" height="40" viewBox="0 0 40 40" fill="none" xmlns="http://www.w3.org/2000/svg">
<circle cx="20" cy="20" r="19" stroke="#191919" stroke-width="2"/>
<path d="M25.7828 20.6418L25.7638 19.979H19.7829V21.7022H23.8143C23.3412 23.7853 21.8649 25.073 19.8964 25.073C17.3034 25.073 15.2025 22.971 15.2025 20.3767C15.2025 17.7823 17.3034 15.6803 19.8964 15.6803C21.1267 15.6803 22.2434 16.1537 23.0951 16.9301L24.42 15.7939C23.2655 14.6577 21.6567 13.9381 19.8964 13.9381C16.3381 13.9381 13.4612 16.8165 13.4612 20.3767C13.4612 23.9368 16.3381 26.8152 19.8964 26.8152C23.3222 26.8152 25.7828 24.2019 25.7828 20.6418Z" fill="#191919"/>
<path d="M19.897 26.9103C16.3009 26.9103 13.3672 23.975 13.3672 20.377C13.3672 16.779 16.3009 13.8438 19.897 13.8438C21.6194 13.8438 23.2471 14.5065 24.4774 15.7185L24.5531 15.7943L23.0957 17.063L23.0389 17.0062C22.1872 16.2109 21.0705 15.7753 19.916 15.7753C17.3797 15.7753 15.3167 17.8394 15.3167 20.377C15.3167 22.9146 17.3797 24.9787 19.916 24.9787C21.8087 24.9787 23.2282 23.7857 23.7203 21.7973H19.7078V19.8846H25.8591L25.878 20.6421C25.878 24.278 23.3607 26.9103 19.897 26.9103ZM19.897 14.0331C16.3955 14.0331 13.5565 16.8737 13.5565 20.377C13.5565 23.8803 16.3955 26.7209 19.897 26.7209C23.2471 26.7209 25.6887 24.1644 25.6887 20.6611V20.0929H19.897V21.6268H23.9474L23.9285 21.7405C23.4364 23.8993 21.9411 25.187 19.916 25.187C17.2851 25.187 15.1274 23.0471 15.1274 20.3959C15.1274 17.7637 17.2662 15.6049 19.916 15.6049C21.0894 15.6049 22.2251 16.0404 23.1146 16.8358L24.2881 15.8132C23.0957 14.658 21.5437 14.0331 19.897 14.0331Z" fill="#191919"/>
</svg>
