<svg width="40" height="40" viewBox="0 0 40 40" fill="none" xmlns="http://www.w3.org/2000/svg">
<circle cx="20" cy="20" r="19" stroke="#191919" stroke-width="2"/>
<path d="M13.1589 24.4479C14.5785 24.5805 15.8655 24.2207 17.039 23.3496C16.4522 23.3117 15.9412 23.1413 15.5059 22.8004C15.0706 22.4596 14.7488 22.0429 14.5785 21.4938C14.9759 21.5506 15.3355 21.5506 15.7141 21.4559C15.1084 21.3044 14.6163 20.9825 14.2378 20.509C13.8592 20.0167 13.67 19.4675 13.651 18.8237C14.0106 18.9941 14.3892 19.1266 14.8056 19.1456C13.6321 18.1609 13.3861 16.9868 14.0296 15.5854C15.487 17.2898 17.285 18.2366 19.4995 18.3881C19.4995 18.123 19.4616 17.8579 19.4806 17.5928C19.5374 16.7217 19.9538 16.021 20.6919 15.5476C21.7708 14.8658 23.0578 14.9984 23.9852 15.8884C24.042 15.9452 24.0988 15.9642 24.1745 15.9452C24.7234 15.8127 25.2344 15.6233 25.7454 15.3203C25.5372 15.9452 25.1587 16.3997 24.6477 16.7595C25.1398 16.7027 25.6129 16.5702 26.0861 16.3997C25.9915 16.5323 25.8969 16.6648 25.8022 16.7785C25.5372 17.1193 25.2155 17.4034 24.8748 17.6685C24.8369 17.7064 24.7991 17.7821 24.7991 17.8389C24.818 20.1303 24.0041 22.0808 22.3575 23.6715C21.3354 24.6562 20.0862 25.2622 18.6856 25.5084C17.8339 25.6599 16.9822 25.6788 16.1116 25.5652C15.0706 25.4137 14.0864 25.0539 13.1968 24.4858C13.1779 24.4858 13.1779 24.4858 13.1589 24.4479Z" fill="#191919"/>
</svg>
